<svg xmlns="http://www.w3.org/2000/svg" xmlns:xlink="http://www.w3.org/1999/xlink" xmlns:lucid="lucid" width="2347.52" height="1360"><g transform="translate(0 0)" lucid:page-tab-id="ib8mKbtUJ~P."><path d="M80 26a6 6 0 0 1 6-6h348a6 6 0 0 1 6 6v289a6 6 0 0 1-6 6H86a6 6 0 0 1-6-6z" stroke="#3a414a" fill="#fff"/><path d="M80 57.6h360M80 203.1h360" stroke="#3a414a" fill="none"/><use xlink:href="#a" transform="matrix(1,0,0,1,88,28) translate(125.55 14.6)"/><use xlink:href="#b" transform="matrix(1,0,0,1,88,28) translate(170.5 14.6)"/><use xlink:href="#c" transform="matrix(1,0,0,1,92,65.6) translate(0 25.39999999999999)"/><use xlink:href="#d" transform="matrix(1,0,0,1,92,65.6) translate(0 46.99999999999999)"/><use xlink:href="#e" transform="matrix(1,0,0,1,92,65.6) translate(0 68.6)"/><use xlink:href="#f" transform="matrix(1,0,0,1,92,65.6) translate(0 90.20000000000002)"/><use xlink:href="#g" transform="matrix(1,0,0,1,92,65.6) translate(0 111.80000000000001)"/><use xlink:href="#h" transform="matrix(1,0,0,1,92,211.1) translate(0 28.77777777777778)"/><use xlink:href="#i" transform="matrix(1,0,0,1,92,211.1) translate(19.1358024691358 28.77777777777778)"/><use xlink:href="#j" transform="matrix(1,0,0,1,92,211.1) translate(0 55.44444444444445)"/><use xlink:href="#k" transform="matrix(1,0,0,1,92,211.1) translate(13.518518518518519 55.44444444444445)"/><use xlink:href="#j" transform="matrix(1,0,0,1,92,211.1) translate(0 82.11111111111111)"/><use xlink:href="#l" transform="matrix(1,0,0,1,92,211.1) translate(13.518518518518519 82.11111111111111)"/><path d="M1100 26a6 6 0 0 1 6-6h348a6 6 0 0 1 6 6v267a6 6 0 0 1-6 6h-348a6 6 0 0 1-6-6z" stroke="#3a414a" fill="#fff"/><path d="M1100 57.6h360m-360 123.9h360" stroke="#3a414a" fill="none"/><use xlink:href="#m" transform="matrix(1,0,0,1,1108,28) translate(120.07499999999999 14.6)"/><use xlink:href="#b" transform="matrix(1,0,0,1,1108,28) translate(175.975 14.6)"/><use xlink:href="#n" transform="matrix(1,0,0,1,1112,65.6) translate(0 25.19999999999999)"/><use xlink:href="#o" transform="matrix(1,0,0,1,1112,65.6) translate(0 46.79999999999999)"/><use xlink:href="#p" transform="matrix(1,0,0,1,1112,65.6) translate(0 68.39999999999999)"/><use xlink:href="#q" transform="matrix(1,0,0,1,1112,65.6) translate(0 90)"/><use xlink:href="#h" transform="matrix(1,0,0,1,1112,189.50000000000003) translate(0 28.77777777777778)"/><use xlink:href="#i" transform="matrix(1,0,0,1,1112,189.50000000000003) translate(19.1358024691358 28.77777777777778)"/><use xlink:href="#j" transform="matrix(1,0,0,1,1112,189.50000000000003) translate(0 55.44444444444445)"/><use xlink:href="#k" transform="matrix(1,0,0,1,1112,189.50000000000003) translate(13.518518518518519 55.44444444444445)"/><use xlink:href="#j" transform="matrix(1,0,0,1,1112,189.50000000000003) translate(0 82.11111111111111)"/><use xlink:href="#l" transform="matrix(1,0,0,1,1112,189.50000000000003) translate(13.518518518518519 82.11111111111111)"/><path d="M920 806a6 6 0 0 1 6-6h348a6 6 0 0 1 6 6v224a6 6 0 0 1-6 6H926a6 6 0 0 1-6-6z" stroke="#3a414a" fill="#fff"/><path d="M920 837.6h360m-360 80.7h360" stroke="#3a414a" fill="none"/><use xlink:href="#r" transform="matrix(1,0,0,1,928,808) translate(92.5 14.6)"/><use xlink:href="#b" transform="matrix(1,0,0,1,928,808) translate(203.55 14.6)"/><use xlink:href="#s" transform="matrix(1,0,0,1,932,845.6) translate(0 25.299999999999997)"/><use xlink:href="#t" transform="matrix(1,0,0,1,932,845.6) translate(0 46.9)"/><use xlink:href="#h" transform="matrix(1,0,0,1,932,926.3000000000001) translate(0 28.77777777777778)"/><use xlink:href="#i" transform="matrix(1,0,0,1,932,926.3000000000001) translate(19.1358024691358 28.77777777777778)"/><use xlink:href="#j" transform="matrix(1,0,0,1,932,926.3000000000001) translate(0 55.44444444444445)"/><use xlink:href="#k" transform="matrix(1,0,0,1,932,926.3000000000001) translate(13.518518518518519 55.44444444444445)"/><use xlink:href="#j" transform="matrix(1,0,0,1,932,926.3000000000001) translate(0 82.11111111111111)"/><use xlink:href="#l" transform="matrix(1,0,0,1,932,926.3000000000001) translate(13.518518518518519 82.11111111111111)"/><path d="M1840 666a6 6 0 0 1 6-6h348a6 6 0 0 1 6 6v224a6 6 0 0 1-6 6h-348a6 6 0 0 1-6-6z" stroke="#3a414a" fill="#fff"/><path d="M1840 697.6h360m-360 80.7h360" stroke="#3a414a" fill="none"/><use xlink:href="#u" transform="matrix(1,0,0,1,1848,668) translate(108.19999999999999 14.6)"/><use xlink:href="#b" transform="matrix(1,0,0,1,1848,668) translate(187.85 14.6)"/><use xlink:href="#s" transform="matrix(1,0,0,1,1852,705.6) translate(0 25.299999999999997)"/><use xlink:href="#t" transform="matrix(1,0,0,1,1852,705.6) translate(0 46.9)"/><use xlink:href="#h" transform="matrix(1,0,0,1,1852,786.3000000000001) translate(0 28.77777777777778)"/><use xlink:href="#i" transform="matrix(1,0,0,1,1852,786.3000000000001) translate(19.1358024691358 28.77777777777778)"/><use xlink:href="#j" transform="matrix(1,0,0,1,1852,786.3000000000001) translate(0 55.44444444444445)"/><use xlink:href="#k" transform="matrix(1,0,0,1,1852,786.3000000000001) translate(13.518518518518519 55.44444444444445)"/><use xlink:href="#j" transform="matrix(1,0,0,1,1852,786.3000000000001) translate(0 82.11111111111111)"/><use xlink:href="#l" transform="matrix(1,0,0,1,1852,786.3000000000001) translate(13.518518518518519 82.11111111111111)"/><path d="M1840 966a6 6 0 0 1 6-6h348a6 6 0 0 1 6 6v224a6 6 0 0 1-6 6h-348a6 6 0 0 1-6-6z" stroke="#3a414a" fill="#fff"/><path d="M1840 997.6h360m-360 80.7h360" stroke="#3a414a" fill="none"/><use xlink:href="#v" transform="matrix(1,0,0,1,1848,968) translate(94.64999999999999 14.6)"/><use xlink:href="#b" transform="matrix(1,0,0,1,1848,968) translate(201.4 14.6)"/><use xlink:href="#s" transform="matrix(1,0,0,1,1852,1005.6) translate(0 25.299999999999997)"/><use xlink:href="#t" transform="matrix(1,0,0,1,1852,1005.6) translate(0 46.9)"/><use xlink:href="#h" transform="matrix(1,0,0,1,1852,1086.3) translate(0 28.77777777777778)"/><use xlink:href="#i" transform="matrix(1,0,0,1,1852,1086.3) translate(19.1358024691358 28.77777777777778)"/><use xlink:href="#j" transform="matrix(1,0,0,1,1852,1086.3) translate(0 55.44444444444445)"/><use xlink:href="#k" transform="matrix(1,0,0,1,1852,1086.3) translate(13.518518518518519 55.44444444444445)"/><use xlink:href="#j" transform="matrix(1,0,0,1,1852,1086.3) translate(0 82.11111111111111)"/><use xlink:href="#l" transform="matrix(1,0,0,1,1852,1086.3) translate(13.518518518518519 82.11111111111111)"/><path d="M1800 106a6 6 0 0 1 6-6h348a6 6 0 0 1 6 6v267a6 6 0 0 1-6 6h-348a6 6 0 0 1-6-6z" stroke="#3a414a" fill="#fff"/><path d="M1800 137.6h360m-360 123.9h360" stroke="#3a414a" fill="none"/><g><use xlink:href="#w" transform="matrix(1,0,0,1,1808,108) translate(90.625 14.6)"/><use xlink:href="#b" transform="matrix(1,0,0,1,1808,108) translate(205.425 14.6)"/></g><g><use xlink:href="#x" transform="matrix(1,0,0,1,1812,145.6) translate(0 25.19999999999999)"/><use xlink:href="#y" transform="matrix(1,0,0,1,1812,145.6) translate(0 46.79999999999999)"/><use xlink:href="#z" transform="matrix(1,0,0,1,1812,145.6) translate(0 68.39999999999999)"/><use xlink:href="#A" transform="matrix(1,0,0,1,1812,145.6) translate(0 90)"/></g><g><use xlink:href="#h" transform="matrix(1,0,0,1,1812,269.5) translate(0 28.77777777777778)"/><use xlink:href="#i" transform="matrix(1,0,0,1,1812,269.5) translate(19.1358024691358 28.77777777777778)"/><use xlink:href="#j" transform="matrix(1,0,0,1,1812,269.5) translate(0 55.44444444444445)"/><use xlink:href="#k" transform="matrix(1,0,0,1,1812,269.5) translate(13.518518518518519 55.44444444444445)"/><use xlink:href="#j" transform="matrix(1,0,0,1,1812,269.5) translate(0 82.11111111111111)"/><use xlink:href="#l" transform="matrix(1,0,0,1,1812,269.5) translate(13.518518518518519 82.11111111111111)"/></g><path d="M1799.04 239.5H1636a6 6 0 0 1-6-6v-68a6 6 0 0 0-6-6h-163.04" stroke="#3a414a" fill="none"/><path d="M1799.54 240h-.52v-1h.52zM1460.98 160h-.52v-1h.52z" stroke="#3a414a" stroke-width=".05" fill="#3a414a"/><path d="M1480 826a6 6 0 0 1 6-6h148a6 6 0 0 1 6 6v108a6 6 0 0 1-6 6h-148a6 6 0 0 1-6-6z" stroke="#3a414a" fill="#fff"/><g><use xlink:href="#B" transform="matrix(1,0,0,1,1488,828) translate(13.574999999999996 44.8)"/><use xlink:href="#C" transform="matrix(1,0,0,1,1488,828) translate(30.599999999999994 66.4)"/></g><path d="M1280.96 918H1374a6 6 0 0 0 6-6v-56.03a6 6 0 0 1 6-6H1479" stroke="#3a414a" fill="none"/><path d="M1280.98 918.5h-.52v-1h.52zM1479.52 850.47h-.52v-1h.52z" stroke="#3a414a" stroke-width=".05" fill="#3a414a"/><path d="M1839.04 1078H1746a6 6 0 0 1-6-6V925.3a6 6 0 0 0-6-6h-93" stroke="#3a414a" fill="none"/><path d="M1839.54 1078.5h-.52v-1h.52zM1641 919.8h-.5v-1h.5z" stroke="#3a414a" stroke-width=".05" fill="#3a414a"/><path d="M1839.04 778H1746a6 6 0 0 0-6 6v56.52a6 6 0 0 1-6 6h-93.06" stroke="#3a414a" fill="none"/><path d="M1839.54 778.5h-.52v-1h.52zM1640.95 847.02h-.5v-1h.5z" stroke="#3a414a" stroke-width=".05" fill="#3a414a"/><path d="M1560 819.04V539.96" stroke="#3a414a" fill="none"/><path d="M1560.5 819.54h-1v-.52h1zM1560.5 539.98h-1v-.52h1z" stroke="#3a414a" stroke-width=".05" fill="#3a414a"/><path d="M1560 459.04V385.5a6 6 0 0 0-6-6h-268a6 6 0 0 1-6-6v-73.54" stroke="#3a414a" fill="none"/><path d="M1560.5 459.54h-1v-.52h1zM1280.5 299.98h-1v-.52h1z" stroke="#3a414a" stroke-width=".05" fill="#3a414a"/><path d="M602.68 137a6 6 0 0 1 6-6h268a6 6 0 0 1 6 6v67a6 6 0 0 1-6 6h-268a6 6 0 0 1-6-6z" stroke="#3a414a" fill="#fff"/><g><use xlink:href="#D" transform="matrix(1,0,0,1,602.6785308197095,131) translate(72.19635802469136 44.93402777777778)"/></g><path d="M440.96 170.5H601.3" stroke="#3a414a" fill="none"/><path d="M440.98 171h-.52v-1h.52z" stroke="#3a414a" stroke-width=".05" fill="#3a414a"/><path d="M584.02 180.68l17.2-10.18-17.2-10.18" stroke="#3a414a" fill="none"/><path d="M1420 466a6 6 0 0 1 6-6h268a6 6 0 0 1 6 6v67a6 6 0 0 1-6 6h-268a6 6 0 0 1-6-6z" stroke="#3a414a" fill="#fff"/><g><use xlink:href="#E" transform="matrix(1,0,0,1,1420,460) translate(61.733395061728395 44.93402777777778)"/></g><path d="M883.64 170.5h215.4" stroke="#3a414a" fill="none"/><path d="M883.65 171h-.5v-1h.5zM1099.54 171h-.5v-1h.5z" stroke="#3a414a" stroke-width=".05" fill="#3a414a"/><path d="M742.68 210.96V493.5a6 6 0 0 0 6 6h669.95" stroke="#3a414a" fill="none"/><path d="M743.18 210.98h-1v-.52h1z" stroke="#3a414a" stroke-width=".05" fill="#3a414a"/><path d="M1401.34 509.68l17.2-10.18-17.2-10.18" stroke="#3a414a" fill="none"/><defs><path fill="#333" d="M238-95c0 69-44 99-111 99C63 4 22-25 22-93v-155h51v151c-1 38 19 59 55 60 90 1 49-130 58-211h52v153" id="F"/><path fill="#333" d="M137-138c1-29-70-34-71-4 15 46 118 7 119 86 1 83-164 76-172 9l43-7c4 19 20 25 44 25 33 8 57-30 24-41C81-84 22-81 20-136c-2-80 154-74 161-7" id="G"/><path fill="#333" d="M185-48c-13 30-37 53-82 52C43 2 14-33 14-96s30-98 90-98c62 0 83 45 84 108H66c0 31 8 55 39 56 18 0 30-7 34-22zm-45-69c5-46-57-63-70-21-2 6-4 13-4 21h74" id="H"/><path fill="#333" d="M135-150c-39-12-60 13-60 57V0H25l-1-190h47c2 13-1 29 3 40 6-28 27-53 61-41v41" id="I"/><g id="a"><use transform="matrix(0.05,0,0,0.05,0,0)" xlink:href="#F"/><use transform="matrix(0.05,0,0,0.05,12.950000000000001,0)" xlink:href="#G"/><use transform="matrix(0.05,0,0,0.05,22.950000000000003,0)" xlink:href="#H"/><use transform="matrix(0.05,0,0,0.05,32.95,0)" xlink:href="#I"/></g><path fill="#333" d="M67-125c0 53 21 87 73 88 37 1 54-22 65-47l45 17C233-25 199 4 140 4 58 4 20-42 15-125 8-235 124-281 211-232c18 10 29 29 36 50l-46 12c-8-25-30-41-62-41-52 0-71 34-72 86" id="J"/><path fill="#333" d="M25 0v-261h50V0H25" id="K"/><path fill="#333" d="M133-34C117-15 103 5 69 4 32 3 11-16 11-54c-1-60 55-63 116-61 1-26-3-47-28-47-18 1-26 9-28 27l-52-2c7-38 36-58 82-57s74 22 75 68l1 82c-1 14 12 18 25 15v27c-30 8-71 5-69-32zm-48 3c29 0 43-24 42-57-32 0-66-3-65 30 0 17 8 27 23 27" id="L"/><g id="b"><use transform="matrix(0.05,0,0,0.05,0,0)" xlink:href="#J"/><use transform="matrix(0.05,0,0,0.05,12.950000000000001,0)" xlink:href="#K"/><use transform="matrix(0.05,0,0,0.05,17.950000000000003,0)" xlink:href="#L"/><use transform="matrix(0.05,0,0,0.05,27.950000000000003,0)" xlink:href="#G"/><use transform="matrix(0.05,0,0,0.05,37.95,0)" xlink:href="#G"/></g><path fill="#333" d="M118-107v75H92v-75H18v-26h74v-75h26v75h74v26h-74" id="M"/><path fill="#333" d="M24-231v-30h32v30H24zM24 0v-190h32V0H24" id="N"/><path fill="#333" d="M85-194c31 0 48 13 60 33l-1-100h32l1 261h-30c-2-10 0-23-3-31C134-8 116 4 85 4 32 4 16-35 15-94c0-66 23-100 70-100zm9 24c-40 0-46 34-46 75 0 40 6 74 45 74 42 0 51-32 51-76 0-42-9-74-50-73" id="O"/><path fill="#333" d="M33-154v-36h34v36H33zM33 0v-36h34V0H33" id="P"/><path fill="#333" d="M33 0v-248h34V0H33" id="Q"/><path fill="#333" d="M117-194c89-4 53 116 60 194h-32v-121c0-31-8-49-39-48C34-167 62-67 57 0H25l-1-190h30c1 10-1 24 2 32 11-22 29-35 61-36" id="R"/><path fill="#333" d="M59-47c-2 24 18 29 38 22v24C64 9 27 4 27-40v-127H5v-23h24l9-43h21v43h35v23H59v120" id="S"/><path fill="#333" d="M100-194c63 0 86 42 84 106H49c0 40 14 67 53 68 26 1 43-12 49-29l28 8c-11 28-37 45-77 45C44 4 14-33 15-96c1-61 26-98 85-98zm52 81c6-60-76-77-97-28-3 7-6 17-6 28h103" id="T"/><path fill="#333" d="M177-190C167-65 218 103 67 71c-23-6-38-20-44-43l32-5c15 47 100 32 89-28v-30C133-14 115 1 83 1 29 1 15-40 15-95c0-56 16-97 71-98 29-1 48 16 59 35 1-10 0-23 2-32h30zM94-22c36 0 50-32 50-73 0-42-14-75-50-75-39 0-46 34-46 75s6 73 46 73" id="U"/><path fill="#333" d="M114-163C36-179 61-72 57 0H25l-1-190h30c1 12-1 29 2 39 6-27 23-49 58-41v29" id="V"/><g id="c"><use transform="matrix(0.05,0,0,0.05,0,0)" xlink:href="#M"/><use transform="matrix(0.05,0,0,0.05,10.5,0)" xlink:href="#N"/><use transform="matrix(0.05,0,0,0.05,14.449999999999998,0)" xlink:href="#O"/><use transform="matrix(0.05,0,0,0.05,24.45,0)" xlink:href="#P"/><use transform="matrix(0.05,0,0,0.05,29.450000000000003,0)" xlink:href="#Q"/><use transform="matrix(0.05,0,0,0.05,34.45,0)" xlink:href="#R"/><use transform="matrix(0.05,0,0,0.05,44.45,0)" xlink:href="#S"/><use transform="matrix(0.05,0,0,0.05,49.45,0)" xlink:href="#T"/><use transform="matrix(0.05,0,0,0.05,59.45,0)" xlink:href="#U"/><use transform="matrix(0.05,0,0,0.05,69.45,0)" xlink:href="#T"/><use transform="matrix(0.05,0,0,0.05,79.45,0)" xlink:href="#V"/></g><path fill="#333" d="M16-82v-28h88v28H16" id="W"/><path fill="#333" d="M84 4C-5 8 30-112 23-190h32v120c0 31 7 50 39 49 72-2 45-101 50-169h31l1 190h-30c-1-10 1-25-2-33-11 22-28 36-60 37" id="X"/><path fill="#333" d="M135-143c-3-34-86-38-87 0 15 53 115 12 119 90S17 21 10-45l28-5c4 36 97 45 98 0-10-56-113-15-118-90-4-57 82-63 122-42 12 7 21 19 24 35" id="Y"/><path fill="#333" d="M141-36C126-15 110 5 73 4 37 3 15-17 15-53c-1-64 63-63 125-63 3-35-9-54-41-54-24 1-41 7-42 31l-33-3c5-37 33-52 76-52 45 0 72 20 72 64v82c-1 20 7 32 28 27v20c-31 9-61-2-59-35zM48-53c0 20 12 33 32 33 41-3 63-29 60-74-43 2-92-5-92 41" id="Z"/><path fill="#333" d="M210-169c-67 3-38 105-44 169h-31v-121c0-29-5-50-35-48C34-165 62-65 56 0H25l-1-190h30c1 10-1 24 2 32 10-44 99-50 107 0 11-21 27-35 58-36 85-2 47 119 55 194h-31v-121c0-29-5-49-35-48" id="aa"/><path fill="#333" d="M185-189c-5-48-123-54-124 2 14 75 158 14 163 119 3 78-121 87-175 55-17-10-28-26-33-46l33-7c5 56 141 63 141-1 0-78-155-14-162-118-5-82 145-84 179-34 5 7 8 16 11 25" id="ab"/><g id="d"><use transform="matrix(0.05,0,0,0.05,0,0)" xlink:href="#W"/><use transform="matrix(0.05,0,0,0.05,5.95,0)" xlink:href="#X"/><use transform="matrix(0.05,0,0,0.05,15.949999999999998,0)" xlink:href="#Y"/><use transform="matrix(0.05,0,0,0.05,24.95,0)" xlink:href="#T"/><use transform="matrix(0.05,0,0,0.05,34.95,0)" xlink:href="#V"/><use transform="matrix(0.05,0,0,0.05,40.900000000000006,0)" xlink:href="#R"/><use transform="matrix(0.05,0,0,0.05,50.900000000000006,0)" xlink:href="#Z"/><use transform="matrix(0.05,0,0,0.05,60.900000000000006,0)" xlink:href="#aa"/><use transform="matrix(0.05,0,0,0.05,75.85000000000001,0)" xlink:href="#T"/><use transform="matrix(0.05,0,0,0.05,85.85000000000001,0)" xlink:href="#P"/><use transform="matrix(0.05,0,0,0.05,90.85000000000001,0)" xlink:href="#ab"/><use transform="matrix(0.05,0,0,0.05,102.85000000000001,0)" xlink:href="#S"/><use transform="matrix(0.05,0,0,0.05,107.85000000000001,0)" xlink:href="#V"/><use transform="matrix(0.05,0,0,0.05,113.80000000000001,0)" xlink:href="#N"/><use transform="matrix(0.05,0,0,0.05,117.75,0)" xlink:href="#R"/><use transform="matrix(0.05,0,0,0.05,127.75,0)" xlink:href="#U"/></g><path fill="#333" d="M24 0v-261h32V0H24" id="ac"/><g id="e"><use transform="matrix(0.05,0,0,0.05,0,0)" xlink:href="#W"/><use transform="matrix(0.05,0,0,0.05,5.95,0)" xlink:href="#T"/><use transform="matrix(0.05,0,0,0.05,15.949999999999998,0)" xlink:href="#aa"/><use transform="matrix(0.05,0,0,0.05,30.899999999999995,0)" xlink:href="#Z"/><use transform="matrix(0.05,0,0,0.05,40.9,0)" xlink:href="#N"/><use transform="matrix(0.05,0,0,0.05,44.85,0)" xlink:href="#ac"/><use transform="matrix(0.05,0,0,0.05,48.800000000000004,0)" xlink:href="#P"/><use transform="matrix(0.05,0,0,0.05,53.800000000000004,0)" xlink:href="#ab"/><use transform="matrix(0.05,0,0,0.05,65.80000000000001,0)" xlink:href="#S"/><use transform="matrix(0.05,0,0,0.05,70.80000000000001,0)" xlink:href="#V"/><use transform="matrix(0.05,0,0,0.05,76.75000000000001,0)" xlink:href="#N"/><use transform="matrix(0.05,0,0,0.05,80.70000000000002,0)" xlink:href="#R"/><use transform="matrix(0.05,0,0,0.05,90.70000000000002,0)" xlink:href="#U"/></g><path fill="#333" d="M115-194c55 1 70 41 70 98S169 2 115 4C84 4 66-9 55-30l1 105H24l-1-265h31l2 30c10-21 28-34 59-34zm-8 174c40 0 45-34 45-75s-6-73-45-74c-42 0-51 32-51 76 0 43 10 73 51 73" id="ad"/><path fill="#333" d="M206 0h-36l-40-164L89 0H53L-1-190h32L70-26l43-164h34l41 164 42-164h31" id="ae"/><path fill="#333" d="M100-194c62-1 85 37 85 99 1 63-27 99-86 99S16-35 15-95c0-66 28-99 85-99zM99-20c44 1 53-31 53-75 0-43-8-75-51-75s-53 32-53 75 10 74 51 75" id="af"/><g id="f"><use transform="matrix(0.05,0,0,0.05,0,0)" xlink:href="#W"/><use transform="matrix(0.05,0,0,0.05,5.95,0)" xlink:href="#ad"/><use transform="matrix(0.05,0,0,0.05,15.949999999999998,0)" xlink:href="#Z"/><use transform="matrix(0.05,0,0,0.05,25.950000000000003,0)" xlink:href="#Y"/><use transform="matrix(0.05,0,0,0.05,34.95,0)" xlink:href="#Y"/><use transform="matrix(0.05,0,0,0.05,43.95,0)" xlink:href="#ae"/><use transform="matrix(0.05,0,0,0.05,56.900000000000006,0)" xlink:href="#af"/><use transform="matrix(0.05,0,0,0.05,66.9,0)" xlink:href="#V"/><use transform="matrix(0.05,0,0,0.05,72.85000000000001,0)" xlink:href="#O"/><use transform="matrix(0.05,0,0,0.05,82.85000000000001,0)" xlink:href="#P"/><use transform="matrix(0.05,0,0,0.05,87.85000000000001,0)" xlink:href="#ab"/><use transform="matrix(0.05,0,0,0.05,99.85000000000001,0)" xlink:href="#S"/><use transform="matrix(0.05,0,0,0.05,104.85000000000001,0)" xlink:href="#V"/><use transform="matrix(0.05,0,0,0.05,110.80000000000001,0)" xlink:href="#N"/><use transform="matrix(0.05,0,0,0.05,114.75,0)" xlink:href="#R"/><use transform="matrix(0.05,0,0,0.05,124.75,0)" xlink:href="#U"/></g><g id="g"><use transform="matrix(0.05,0,0,0.05,0,0)" xlink:href="#W"/><use transform="matrix(0.05,0,0,0.05,5.95,0)" xlink:href="#V"/><use transform="matrix(0.05,0,0,0.05,11.9,0)" xlink:href="#af"/><use transform="matrix(0.05,0,0,0.05,21.9,0)" xlink:href="#ac"/><use transform="matrix(0.05,0,0,0.05,25.849999999999994,0)" xlink:href="#T"/><use transform="matrix(0.05,0,0,0.05,35.849999999999994,0)" xlink:href="#P"/><use transform="matrix(0.05,0,0,0.05,40.849999999999994,0)" xlink:href="#ab"/><use transform="matrix(0.05,0,0,0.05,52.849999999999994,0)" xlink:href="#S"/><use transform="matrix(0.05,0,0,0.05,57.849999999999994,0)" xlink:href="#V"/><use transform="matrix(0.05,0,0,0.05,63.79999999999999,0)" xlink:href="#N"/><use transform="matrix(0.05,0,0,0.05,67.75,0)" xlink:href="#R"/><use transform="matrix(0.05,0,0,0.05,77.75,0)" xlink:href="#U"/></g><path fill="#3a414a" d="M118-107v75H92v-75H18v-26h74v-75h26v75h74v26h-74" id="ag"/><use transform="matrix(0.06172839506172839,0,0,0.06172839506172839,0,0)" xlink:href="#ag" id="h"/><path fill="#3a414a" d="M100-194c62-1 85 37 85 99 1 63-27 99-86 99S16-35 15-95c0-66 28-99 85-99zM99-20c44 1 53-31 53-75 0-43-8-75-51-75s-53 32-53 75 10 74 51 75" id="ah"/><path fill="#3a414a" d="M115-194c55 1 70 41 70 98S169 2 115 4C84 4 66-9 55-30l1 105H24l-1-265h31l2 30c10-21 28-34 59-34zm-8 174c40 0 45-34 45-75s-6-73-45-74c-42 0-51 32-51 76 0 43 10 73 51 73" id="ai"/><path fill="#3a414a" d="M100-194c63 0 86 42 84 106H49c0 40 14 67 53 68 26 1 43-12 49-29l28 8c-11 28-37 45-77 45C44 4 14-33 15-96c1-61 26-98 85-98zm52 81c6-60-76-77-97-28-3 7-6 17-6 28h103" id="aj"/><path fill="#3a414a" d="M114-163C36-179 61-72 57 0H25l-1-190h30c1 12-1 29 2 39 6-27 23-49 58-41v29" id="ak"/><path fill="#3a414a" d="M141-36C126-15 110 5 73 4 37 3 15-17 15-53c-1-64 63-63 125-63 3-35-9-54-41-54-24 1-41 7-42 31l-33-3c5-37 33-52 76-52 45 0 72 20 72 64v82c-1 20 7 32 28 27v20c-31 9-61-2-59-35zM48-53c0 20 12 33 32 33 41-3 63-29 60-74-43 2-92-5-92 41" id="al"/><path fill="#3a414a" d="M59-47c-2 24 18 29 38 22v24C64 9 27 4 27-40v-127H5v-23h24l9-43h21v43h35v23H59v120" id="am"/><path fill="#3a414a" d="M24-231v-30h32v30H24zM24 0v-190h32V0H24" id="an"/><path fill="#3a414a" d="M117-194c89-4 53 116 60 194h-32v-121c0-31-8-49-39-48C34-167 62-67 57 0H25l-1-190h30c1 10-1 24 2 32 11-22 29-35 61-36" id="ao"/><path fill="#3a414a" d="M27 0v-27h64v-190l-56 39v-29l58-41h29v221h61V0H27" id="ap"/><path fill="#3a414a" d="M87 75C49 33 22-17 22-94c0-76 28-126 65-167h31c-38 41-64 92-64 168S80 34 118 75H87" id="aq"/><path fill="#3a414a" d="M210-169c-67 3-38 105-44 169h-31v-121c0-29-5-50-35-48C34-165 62-65 56 0H25l-1-190h30c1 10-1 24 2 32 10-44 99-50 107 0 11-21 27-35 58-36 85-2 47 119 55 194h-31v-121c0-29-5-49-35-48" id="ar"/><path fill="#3a414a" d="M135-143c-3-34-86-38-87 0 15 53 115 12 119 90S17 21 10-45l28-5c4 36 97 45 98 0-10-56-113-15-118-90-4-57 82-63 122-42 12 7 21 19 24 35" id="as"/><path fill="#3a414a" d="M33-261c38 41 65 92 65 168S71 34 33 75H2C39 34 66-17 66-93S39-220 2-261h31" id="at"/><path fill="#3a414a" d="M33-154v-36h34v36H33zM33 0v-36h34V0H33" id="au"/><path fill="#3a414a" d="M84 4C-5 8 30-112 23-190h32v120c0 31 7 50 39 49 72-2 45-101 50-169h31l1 190h-30c-1-10 1-25-2-33-11 22-28 36-60 37" id="av"/><path fill="#3a414a" d="M127-220V0H93v-220H8v-28h204v28h-85" id="aw"/><path fill="#3a414a" d="M179-190L93 31C79 59 56 82 12 73V49c39 6 53-20 64-50L1-190h34L92-34l54-156h33" id="ax"/><g id="i"><use transform="matrix(0.06172839506172839,0,0,0.06172839506172839,0,0)" xlink:href="#ah"/><use transform="matrix(0.06172839506172839,0,0,0.06172839506172839,12.345679012345679,0)" xlink:href="#ai"/><use transform="matrix(0.06172839506172839,0,0,0.06172839506172839,24.691358024691358,0)" xlink:href="#aj"/><use transform="matrix(0.06172839506172839,0,0,0.06172839506172839,37.03703703703704,0)" xlink:href="#ak"/><use transform="matrix(0.06172839506172839,0,0,0.06172839506172839,44.382716049382715,0)" xlink:href="#al"/><use transform="matrix(0.06172839506172839,0,0,0.06172839506172839,56.72839506172839,0)" xlink:href="#am"/><use transform="matrix(0.06172839506172839,0,0,0.06172839506172839,62.901234567901234,0)" xlink:href="#an"/><use transform="matrix(0.06172839506172839,0,0,0.06172839506172839,67.77777777777777,0)" xlink:href="#ah"/><use transform="matrix(0.06172839506172839,0,0,0.06172839506172839,80.12345679012346,0)" xlink:href="#ao"/><use transform="matrix(0.06172839506172839,0,0,0.06172839506172839,92.46913580246914,0)" xlink:href="#ap"/><use transform="matrix(0.06172839506172839,0,0,0.06172839506172839,104.81481481481482,0)" xlink:href="#aq"/><use transform="matrix(0.06172839506172839,0,0,0.06172839506172839,112.16049382716051,0)" xlink:href="#ai"/><use transform="matrix(0.06172839506172839,0,0,0.06172839506172839,124.50617283950619,0)" xlink:href="#al"/><use transform="matrix(0.06172839506172839,0,0,0.06172839506172839,136.85185185185188,0)" xlink:href="#ak"/><use transform="matrix(0.06172839506172839,0,0,0.06172839506172839,144.19753086419755,0)" xlink:href="#al"/><use transform="matrix(0.06172839506172839,0,0,0.06172839506172839,156.54320987654322,0)" xlink:href="#ar"/><use transform="matrix(0.06172839506172839,0,0,0.06172839506172839,175,0)" xlink:href="#as"/><use transform="matrix(0.06172839506172839,0,0,0.06172839506172839,186.11111111111111,0)" xlink:href="#at"/><use transform="matrix(0.06172839506172839,0,0,0.06172839506172839,193.45679012345678,0)" xlink:href="#au"/><use transform="matrix(0.06172839506172839,0,0,0.06172839506172839,199.62962962962962,0)" xlink:href="#ak"/><use transform="matrix(0.06172839506172839,0,0,0.06172839506172839,206.9753086419753,0)" xlink:href="#aj"/><use transform="matrix(0.06172839506172839,0,0,0.06172839506172839,219.32098765432096,0)" xlink:href="#am"/><use transform="matrix(0.06172839506172839,0,0,0.06172839506172839,225.4938271604938,0)" xlink:href="#av"/><use transform="matrix(0.06172839506172839,0,0,0.06172839506172839,237.83950617283946,0)" xlink:href="#ak"/><use transform="matrix(0.06172839506172839,0,0,0.06172839506172839,245.18518518518513,0)" xlink:href="#ao"/><use transform="matrix(0.06172839506172839,0,0,0.06172839506172839,257.53086419753083,0)" xlink:href="#aw"/><use transform="matrix(0.06172839506172839,0,0,0.06172839506172839,269.8148148148148,0)" xlink:href="#ax"/><use transform="matrix(0.06172839506172839,0,0,0.06172839506172839,280.92592592592587,0)" xlink:href="#ai"/><use transform="matrix(0.06172839506172839,0,0,0.06172839506172839,293.27160493827154,0)" xlink:href="#aj"/></g><path fill="#3a414a" d="M16-82v-28h88v28H16" id="ay"/><use transform="matrix(0.06172839506172839,0,0,0.06172839506172839,0,0)" xlink:href="#ay" id="j"/><path fill="#3a414a" d="M101-251c82-7 93 87 43 132L82-64C71-53 59-42 53-27h129V0H18c2-99 128-94 128-182 0-28-16-43-45-43s-46 15-49 41l-32-3c6-41 34-60 81-64" id="az"/><g id="k"><use transform="matrix(0.06172839506172839,0,0,0.06172839506172839,0,0)" xlink:href="#ah"/><use transform="matrix(0.06172839506172839,0,0,0.06172839506172839,12.345679012345679,0)" xlink:href="#ai"/><use transform="matrix(0.06172839506172839,0,0,0.06172839506172839,24.691358024691358,0)" xlink:href="#aj"/><use transform="matrix(0.06172839506172839,0,0,0.06172839506172839,37.03703703703704,0)" xlink:href="#ak"/><use transform="matrix(0.06172839506172839,0,0,0.06172839506172839,44.382716049382715,0)" xlink:href="#al"/><use transform="matrix(0.06172839506172839,0,0,0.06172839506172839,56.72839506172839,0)" xlink:href="#am"/><use transform="matrix(0.06172839506172839,0,0,0.06172839506172839,62.901234567901234,0)" xlink:href="#an"/><use transform="matrix(0.06172839506172839,0,0,0.06172839506172839,67.77777777777777,0)" xlink:href="#ah"/><use transform="matrix(0.06172839506172839,0,0,0.06172839506172839,80.12345679012346,0)" xlink:href="#ao"/><use transform="matrix(0.06172839506172839,0,0,0.06172839506172839,92.46913580246914,0)" xlink:href="#az"/><use transform="matrix(0.06172839506172839,0,0,0.06172839506172839,104.81481481481482,0)" xlink:href="#aq"/><use transform="matrix(0.06172839506172839,0,0,0.06172839506172839,112.16049382716051,0)" xlink:href="#ai"/><use transform="matrix(0.06172839506172839,0,0,0.06172839506172839,124.50617283950619,0)" xlink:href="#al"/><use transform="matrix(0.06172839506172839,0,0,0.06172839506172839,136.85185185185188,0)" xlink:href="#ak"/><use transform="matrix(0.06172839506172839,0,0,0.06172839506172839,144.19753086419755,0)" xlink:href="#al"/><use transform="matrix(0.06172839506172839,0,0,0.06172839506172839,156.54320987654322,0)" xlink:href="#ar"/><use transform="matrix(0.06172839506172839,0,0,0.06172839506172839,175,0)" xlink:href="#as"/><use transform="matrix(0.06172839506172839,0,0,0.06172839506172839,186.11111111111111,0)" xlink:href="#at"/></g><path fill="#3a414a" d="M126-127c33 6 58 20 58 59 0 88-139 92-164 29-3-8-5-16-6-25l32-3c6 27 21 44 54 44 32 0 52-15 52-46 0-38-36-46-79-43v-28c39 1 72-4 72-42 0-27-17-43-46-43-28 0-47 15-49 41l-32-3c6-42 35-63 81-64 48-1 79 21 79 65 0 36-21 52-52 59" id="aA"/><g id="l"><use transform="matrix(0.06172839506172839,0,0,0.06172839506172839,0,0)" xlink:href="#ah"/><use transform="matrix(0.06172839506172839,0,0,0.06172839506172839,12.345679012345679,0)" xlink:href="#ai"/><use transform="matrix(0.06172839506172839,0,0,0.06172839506172839,24.691358024691358,0)" xlink:href="#aj"/><use transform="matrix(0.06172839506172839,0,0,0.06172839506172839,37.03703703703704,0)" xlink:href="#ak"/><use transform="matrix(0.06172839506172839,0,0,0.06172839506172839,44.382716049382715,0)" xlink:href="#al"/><use transform="matrix(0.06172839506172839,0,0,0.06172839506172839,56.72839506172839,0)" xlink:href="#am"/><use transform="matrix(0.06172839506172839,0,0,0.06172839506172839,62.901234567901234,0)" xlink:href="#an"/><use transform="matrix(0.06172839506172839,0,0,0.06172839506172839,67.77777777777777,0)" xlink:href="#ah"/><use transform="matrix(0.06172839506172839,0,0,0.06172839506172839,80.12345679012346,0)" xlink:href="#ao"/><use transform="matrix(0.06172839506172839,0,0,0.06172839506172839,92.46913580246914,0)" xlink:href="#aA"/><use transform="matrix(0.06172839506172839,0,0,0.06172839506172839,104.81481481481482,0)" xlink:href="#aq"/><use transform="matrix(0.06172839506172839,0,0,0.06172839506172839,112.16049382716051,0)" xlink:href="#at"/></g><path fill="#333" d="M230 0l2-204L168 0h-37L68-204 70 0H24v-248h70l56 185 57-185h69V0h-46" id="aB"/><path fill="#333" d="M110-194c64 0 96 36 96 99 0 64-35 99-97 99-61 0-95-36-95-99 0-62 34-99 96-99zm-1 164c35 0 45-28 45-65 0-40-10-65-43-65-34 0-45 26-45 65 0 36 10 65 43 65" id="aC"/><path fill="#333" d="M128 0H69L1-190h53L99-40l48-150h52" id="aD"/><path fill="#333" d="M25-224v-37h50v37H25zM25 0v-190h50V0H25" id="aE"/><g id="m"><use transform="matrix(0.05,0,0,0.05,0,0)" xlink:href="#aB"/><use transform="matrix(0.05,0,0,0.05,14.950000000000001,0)" xlink:href="#aC"/><use transform="matrix(0.05,0,0,0.05,25.900000000000002,0)" xlink:href="#aD"/><use transform="matrix(0.05,0,0,0.05,35.900000000000006,0)" xlink:href="#aE"/><use transform="matrix(0.05,0,0,0.05,40.900000000000006,0)" xlink:href="#H"/></g><g id="n"><use transform="matrix(0.05,0,0,0.05,0,0)" xlink:href="#W"/><use transform="matrix(0.05,0,0,0.05,5.95,0)" xlink:href="#N"/><use transform="matrix(0.05,0,0,0.05,9.9,0)" xlink:href="#O"/><use transform="matrix(0.05,0,0,0.05,19.9,0)" xlink:href="#P"/><use transform="matrix(0.05,0,0,0.05,24.9,0)" xlink:href="#Q"/><use transform="matrix(0.05,0,0,0.05,29.899999999999995,0)" xlink:href="#R"/><use transform="matrix(0.05,0,0,0.05,39.9,0)" xlink:href="#S"/><use transform="matrix(0.05,0,0,0.05,44.9,0)" xlink:href="#T"/><use transform="matrix(0.05,0,0,0.05,54.900000000000006,0)" xlink:href="#U"/><use transform="matrix(0.05,0,0,0.05,64.9,0)" xlink:href="#T"/><use transform="matrix(0.05,0,0,0.05,74.9,0)" xlink:href="#V"/></g><g id="o"><use transform="matrix(0.05,0,0,0.05,0,0)" xlink:href="#W"/><use transform="matrix(0.05,0,0,0.05,5.95,0)" xlink:href="#S"/><use transform="matrix(0.05,0,0,0.05,10.95,0)" xlink:href="#N"/><use transform="matrix(0.05,0,0,0.05,14.899999999999999,0)" xlink:href="#S"/><use transform="matrix(0.05,0,0,0.05,19.9,0)" xlink:href="#ac"/><use transform="matrix(0.05,0,0,0.05,23.849999999999998,0)" xlink:href="#T"/><use transform="matrix(0.05,0,0,0.05,33.849999999999994,0)" xlink:href="#P"/><use transform="matrix(0.05,0,0,0.05,38.849999999999994,0)" xlink:href="#ab"/><use transform="matrix(0.05,0,0,0.05,50.849999999999994,0)" xlink:href="#S"/><use transform="matrix(0.05,0,0,0.05,55.849999999999994,0)" xlink:href="#V"/><use transform="matrix(0.05,0,0,0.05,61.79999999999999,0)" xlink:href="#N"/><use transform="matrix(0.05,0,0,0.05,65.75,0)" xlink:href="#R"/><use transform="matrix(0.05,0,0,0.05,75.75,0)" xlink:href="#U"/></g><path fill="#333" d="M179-190L93 31C79 59 56 82 12 73V49c39 6 53-20 64-50L1-190h34L92-34l54-156h33" id="aF"/><g id="p"><use transform="matrix(0.05,0,0,0.05,0,0)" xlink:href="#W"/><use transform="matrix(0.05,0,0,0.05,5.95,0)" xlink:href="#aF"/><use transform="matrix(0.05,0,0,0.05,14.949999999999998,0)" xlink:href="#T"/><use transform="matrix(0.05,0,0,0.05,24.95,0)" xlink:href="#Z"/><use transform="matrix(0.05,0,0,0.05,34.95,0)" xlink:href="#V"/><use transform="matrix(0.05,0,0,0.05,40.900000000000006,0)" xlink:href="#P"/><use transform="matrix(0.05,0,0,0.05,45.900000000000006,0)" xlink:href="#ab"/><use transform="matrix(0.05,0,0,0.05,57.900000000000006,0)" xlink:href="#S"/><use transform="matrix(0.05,0,0,0.05,62.900000000000006,0)" xlink:href="#V"/><use transform="matrix(0.05,0,0,0.05,68.85000000000001,0)" xlink:href="#N"/><use transform="matrix(0.05,0,0,0.05,72.80000000000001,0)" xlink:href="#R"/><use transform="matrix(0.05,0,0,0.05,82.80000000000001,0)" xlink:href="#U"/></g><path fill="#333" d="M240 0l2-218c-23 76-54 145-80 218h-23L58-218 59 0H30v-248h44l77 211c21-75 51-140 76-211h43V0h-30" id="aG"/><path fill="#333" d="M108 0H70L1-190h34L89-25l56-165h34" id="aH"/><path fill="#333" d="M30-248c118-7 216 8 213 122C240-48 200 0 122 0H30v-248zM63-27c89 8 146-16 146-99s-60-101-146-95v194" id="aI"/><g id="q"><use transform="matrix(0.05,0,0,0.05,0,0)" xlink:href="#W"/><use transform="matrix(0.05,0,0,0.05,5.95,0)" xlink:href="#O"/><use transform="matrix(0.05,0,0,0.05,15.949999999999998,0)" xlink:href="#T"/><use transform="matrix(0.05,0,0,0.05,25.950000000000003,0)" xlink:href="#S"/><use transform="matrix(0.05,0,0,0.05,30.950000000000003,0)" xlink:href="#Z"/><use transform="matrix(0.05,0,0,0.05,40.95,0)" xlink:href="#N"/><use transform="matrix(0.05,0,0,0.05,44.900000000000006,0)" xlink:href="#ac"/><use transform="matrix(0.05,0,0,0.05,48.85000000000001,0)" xlink:href="#Y"/><use transform="matrix(0.05,0,0,0.05,57.85,0)" xlink:href="#P"/><use transform="matrix(0.05,0,0,0.05,62.85,0)" xlink:href="#aG"/><use transform="matrix(0.05,0,0,0.05,77.80000000000001,0)" xlink:href="#af"/><use transform="matrix(0.05,0,0,0.05,87.80000000000001,0)" xlink:href="#aH"/><use transform="matrix(0.05,0,0,0.05,96.80000000000001,0)" xlink:href="#N"/><use transform="matrix(0.05,0,0,0.05,100.75000000000001,0)" xlink:href="#T"/><use transform="matrix(0.05,0,0,0.05,110.75,0)" xlink:href="#aI"/><use transform="matrix(0.05,0,0,0.05,123.7,0)" xlink:href="#T"/><use transform="matrix(0.05,0,0,0.05,133.70000000000002,0)" xlink:href="#S"/><use transform="matrix(0.05,0,0,0.05,138.70000000000002,0)" xlink:href="#Z"/><use transform="matrix(0.05,0,0,0.05,148.70000000000002,0)" xlink:href="#N"/><use transform="matrix(0.05,0,0,0.05,152.65,0)" xlink:href="#ac"/><use transform="matrix(0.05,0,0,0.05,156.6,0)" xlink:href="#Y"/></g><path fill="#333" d="M275 0h-61l-44-196L126 0H64L0-248h53L97-49l45-199h58l43 199 44-199h52" id="aJ"/><path fill="#333" d="M115-3C79 11 28 4 28-45v-112H4v-33h27l15-45h31v45h36v33H77v99c-1 23 16 31 38 25v30" id="aK"/><path fill="#333" d="M190-63c-7 42-38 67-86 67-59 0-84-38-90-98-12-110 154-137 174-36l-49 2c-2-19-15-32-35-32-30 0-35 28-38 64-6 74 65 87 74 30" id="aL"/><path fill="#333" d="M114-157C55-157 80-60 75 0H25v-261h50l-1 109c12-26 28-41 61-42 86-1 58 113 63 194h-50c-7-57 23-157-34-157" id="aM"/><path fill="#333" d="M88-194c31-1 46 15 58 34l-1-101h50l1 261h-48c-2-10 0-23-3-31C134-8 116 4 84 4 32 4 16-41 15-95c0-56 19-97 73-99zm17 164c33 0 40-30 41-66 1-37-9-64-41-64s-38 30-39 65c0 43 13 65 39 65" id="aN"/><path fill="#333" d="M24 0v-248h52v208h133V0H24" id="aO"/><g id="r"><use transform="matrix(0.05,0,0,0.05,0,0)" xlink:href="#aJ"/><use transform="matrix(0.05,0,0,0.05,16.3,0)" xlink:href="#L"/><use transform="matrix(0.05,0,0,0.05,26.3,0)" xlink:href="#aK"/><use transform="matrix(0.05,0,0,0.05,32.25,0)" xlink:href="#aL"/><use transform="matrix(0.05,0,0,0.05,42.25,0)" xlink:href="#aM"/><use transform="matrix(0.05,0,0,0.05,53.2,0)" xlink:href="#H"/><use transform="matrix(0.05,0,0,0.05,63.2,0)" xlink:href="#aN"/><use transform="matrix(0.05,0,0,0.05,74.15,0)" xlink:href="#aO"/><use transform="matrix(0.05,0,0,0.05,85.10000000000001,0)" xlink:href="#aE"/><use transform="matrix(0.05,0,0,0.05,90.10000000000001,0)" xlink:href="#G"/><use transform="matrix(0.05,0,0,0.05,100.10000000000001,0)" xlink:href="#aK"/></g><g id="s"><use transform="matrix(0.05,0,0,0.05,0,0)" xlink:href="#W"/><use transform="matrix(0.05,0,0,0.05,5.95,0)" xlink:href="#X"/><use transform="matrix(0.05,0,0,0.05,15.949999999999998,0)" xlink:href="#Y"/><use transform="matrix(0.05,0,0,0.05,24.95,0)" xlink:href="#T"/><use transform="matrix(0.05,0,0,0.05,34.95,0)" xlink:href="#V"/><use transform="matrix(0.05,0,0,0.05,40.900000000000006,0)" xlink:href="#N"/><use transform="matrix(0.05,0,0,0.05,44.85000000000001,0)" xlink:href="#O"/><use transform="matrix(0.05,0,0,0.05,54.85,0)" xlink:href="#P"/><use transform="matrix(0.05,0,0,0.05,59.85,0)" xlink:href="#Q"/><use transform="matrix(0.05,0,0,0.05,64.85000000000001,0)" xlink:href="#R"/><use transform="matrix(0.05,0,0,0.05,74.85000000000001,0)" xlink:href="#S"/><use transform="matrix(0.05,0,0,0.05,79.85000000000001,0)" xlink:href="#T"/><use transform="matrix(0.05,0,0,0.05,89.85000000000001,0)" xlink:href="#U"/><use transform="matrix(0.05,0,0,0.05,99.85000000000001,0)" xlink:href="#T"/><use transform="matrix(0.05,0,0,0.05,109.85000000000001,0)" xlink:href="#V"/></g><path fill="#333" d="M30 0v-248h33v221h125V0H30" id="aP"/><path fill="#333" d="M26 75v-336h71v23H56V52h41v23H26" id="aQ"/><path fill="#333" d="M3 75V52h41v-290H3v-23h71V75H3" id="aR"/><g id="t"><use transform="matrix(0.05,0,0,0.05,0,0)" xlink:href="#W"/><use transform="matrix(0.05,0,0,0.05,5.95,0)" xlink:href="#aa"/><use transform="matrix(0.05,0,0,0.05,20.900000000000002,0)" xlink:href="#af"/><use transform="matrix(0.05,0,0,0.05,30.900000000000002,0)" xlink:href="#aH"/><use transform="matrix(0.05,0,0,0.05,39.900000000000006,0)" xlink:href="#N"/><use transform="matrix(0.05,0,0,0.05,43.85000000000001,0)" xlink:href="#T"/><use transform="matrix(0.05,0,0,0.05,53.85,0)" xlink:href="#aP"/><use transform="matrix(0.05,0,0,0.05,63.85,0)" xlink:href="#N"/><use transform="matrix(0.05,0,0,0.05,67.80000000000001,0)" xlink:href="#Y"/><use transform="matrix(0.05,0,0,0.05,76.80000000000001,0)" xlink:href="#S"/><use transform="matrix(0.05,0,0,0.05,81.80000000000001,0)" xlink:href="#P"/><use transform="matrix(0.05,0,0,0.05,86.80000000000001,0)" xlink:href="#aG"/><use transform="matrix(0.05,0,0,0.05,101.75000000000001,0)" xlink:href="#af"/><use transform="matrix(0.05,0,0,0.05,111.75,0)" xlink:href="#aH"/><use transform="matrix(0.05,0,0,0.05,120.75,0)" xlink:href="#N"/><use transform="matrix(0.05,0,0,0.05,124.7,0)" xlink:href="#T"/><use transform="matrix(0.05,0,0,0.05,134.70000000000002,0)" xlink:href="#aQ"/><use transform="matrix(0.05,0,0,0.05,139.70000000000002,0)" xlink:href="#aR"/></g><g id="u"><use transform="matrix(0.05,0,0,0.05,0,0)" xlink:href="#aJ"/><use transform="matrix(0.05,0,0,0.05,16.8,0)" xlink:href="#aE"/><use transform="matrix(0.05,0,0,0.05,21.8,0)" xlink:href="#G"/><use transform="matrix(0.05,0,0,0.05,31.8,0)" xlink:href="#aM"/><use transform="matrix(0.05,0,0,0.05,42.75,0)" xlink:href="#aO"/><use transform="matrix(0.05,0,0,0.05,53.7,0)" xlink:href="#aE"/><use transform="matrix(0.05,0,0,0.05,58.7,0)" xlink:href="#G"/><use transform="matrix(0.05,0,0,0.05,68.7,0)" xlink:href="#aK"/></g><path fill="#333" d="M76-208v77h127v40H76V0H24v-248h183v40H76" id="aS"/><g id="v"><use transform="matrix(0.05,0,0,0.05,0,0)" xlink:href="#aS"/><use transform="matrix(0.05,0,0,0.05,10.950000000000001,0)" xlink:href="#L"/><use transform="matrix(0.05,0,0,0.05,20.950000000000003,0)" xlink:href="#aD"/><use transform="matrix(0.05,0,0,0.05,30.950000000000003,0)" xlink:href="#aC"/><use transform="matrix(0.05,0,0,0.05,41.900000000000006,0)" xlink:href="#I"/><use transform="matrix(0.05,0,0,0.05,48.900000000000006,0)" xlink:href="#aE"/><use transform="matrix(0.05,0,0,0.05,53.900000000000006,0)" xlink:href="#aK"/><use transform="matrix(0.05,0,0,0.05,59.85,0)" xlink:href="#H"/><use transform="matrix(0.05,0,0,0.05,69.85000000000001,0)" xlink:href="#aO"/><use transform="matrix(0.05,0,0,0.05,80.80000000000001,0)" xlink:href="#aE"/><use transform="matrix(0.05,0,0,0.05,85.80000000000001,0)" xlink:href="#G"/><use transform="matrix(0.05,0,0,0.05,95.80000000000001,0)" xlink:href="#aK"/></g><path fill="#333" d="M24-248c120-7 223 5 221 122C244-46 201 0 124 0H24v-248zM76-40c74 7 117-18 117-86 0-67-45-88-117-82v168" id="aT"/><g id="w"><use transform="matrix(0.05,0,0,0.05,0,0)" xlink:href="#aB"/><use transform="matrix(0.05,0,0,0.05,14.950000000000001,0)" xlink:href="#aC"/><use transform="matrix(0.05,0,0,0.05,25.900000000000002,0)" xlink:href="#aD"/><use transform="matrix(0.05,0,0,0.05,35.900000000000006,0)" xlink:href="#aE"/><use transform="matrix(0.05,0,0,0.05,40.900000000000006,0)" xlink:href="#H"/><use transform="matrix(0.05,0,0,0.05,50.900000000000006,0)" xlink:href="#aT"/><use transform="matrix(0.05,0,0,0.05,63.85,0)" xlink:href="#H"/><use transform="matrix(0.05,0,0,0.05,73.85000000000001,0)" xlink:href="#aK"/><use transform="matrix(0.05,0,0,0.05,79.80000000000001,0)" xlink:href="#L"/><use transform="matrix(0.05,0,0,0.05,89.80000000000001,0)" xlink:href="#K"/><use transform="matrix(0.05,0,0,0.05,94.80000000000001,0)" xlink:href="#aE"/><use transform="matrix(0.05,0,0,0.05,99.80000000000001,0)" xlink:href="#G"/></g><g id="x"><use transform="matrix(0.05,0,0,0.05,0,0)" xlink:href="#W"/><use transform="matrix(0.05,0,0,0.05,5.95,0)" xlink:href="#aa"/><use transform="matrix(0.05,0,0,0.05,20.900000000000002,0)" xlink:href="#af"/><use transform="matrix(0.05,0,0,0.05,30.900000000000002,0)" xlink:href="#aH"/><use transform="matrix(0.05,0,0,0.05,39.900000000000006,0)" xlink:href="#N"/><use transform="matrix(0.05,0,0,0.05,43.85000000000001,0)" xlink:href="#T"/><use transform="matrix(0.05,0,0,0.05,53.85,0)" xlink:href="#N"/><use transform="matrix(0.05,0,0,0.05,57.80000000000001,0)" xlink:href="#O"/><use transform="matrix(0.05,0,0,0.05,67.80000000000001,0)" xlink:href="#P"/><use transform="matrix(0.05,0,0,0.05,72.80000000000001,0)" xlink:href="#Q"/><use transform="matrix(0.05,0,0,0.05,77.80000000000001,0)" xlink:href="#R"/><use transform="matrix(0.05,0,0,0.05,87.80000000000001,0)" xlink:href="#S"/><use transform="matrix(0.05,0,0,0.05,92.80000000000001,0)" xlink:href="#T"/><use transform="matrix(0.05,0,0,0.05,102.80000000000001,0)" xlink:href="#U"/><use transform="matrix(0.05,0,0,0.05,112.80000000000001,0)" xlink:href="#T"/><use transform="matrix(0.05,0,0,0.05,122.80000000000001,0)" xlink:href="#V"/></g><g id="y"><use transform="matrix(0.05,0,0,0.05,0,0)" xlink:href="#W"/><use transform="matrix(0.05,0,0,0.05,5.95,0)" xlink:href="#V"/><use transform="matrix(0.05,0,0,0.05,11.9,0)" xlink:href="#Z"/><use transform="matrix(0.05,0,0,0.05,21.9,0)" xlink:href="#S"/><use transform="matrix(0.05,0,0,0.05,26.899999999999995,0)" xlink:href="#T"/><use transform="matrix(0.05,0,0,0.05,36.9,0)" xlink:href="#P"/><use transform="matrix(0.05,0,0,0.05,41.9,0)" xlink:href="#ab"/><use transform="matrix(0.05,0,0,0.05,53.900000000000006,0)" xlink:href="#S"/><use transform="matrix(0.05,0,0,0.05,58.900000000000006,0)" xlink:href="#V"/><use transform="matrix(0.05,0,0,0.05,64.85,0)" xlink:href="#N"/><use transform="matrix(0.05,0,0,0.05,68.8,0)" xlink:href="#R"/><use transform="matrix(0.05,0,0,0.05,78.8,0)" xlink:href="#U"/></g><path fill="#333" d="M96-169c-40 0-48 33-48 73s9 75 48 75c24 0 41-14 43-38l32 2c-6 37-31 61-74 61-59 0-76-41-82-99-10-93 101-131 147-64 4 7 5 14 7 22l-32 3c-4-21-16-35-41-35" id="aU"/><g id="z"><use transform="matrix(0.05,0,0,0.05,0,0)" xlink:href="#W"/><use transform="matrix(0.05,0,0,0.05,5.95,0)" xlink:href="#Z"/><use transform="matrix(0.05,0,0,0.05,15.949999999999998,0)" xlink:href="#aU"/><use transform="matrix(0.05,0,0,0.05,24.95,0)" xlink:href="#S"/><use transform="matrix(0.05,0,0,0.05,29.950000000000003,0)" xlink:href="#af"/><use transform="matrix(0.05,0,0,0.05,39.95,0)" xlink:href="#V"/><use transform="matrix(0.05,0,0,0.05,45.900000000000006,0)" xlink:href="#Y"/><use transform="matrix(0.05,0,0,0.05,54.900000000000006,0)" xlink:href="#P"/><use transform="matrix(0.05,0,0,0.05,59.900000000000006,0)" xlink:href="#ab"/><use transform="matrix(0.05,0,0,0.05,71.9,0)" xlink:href="#S"/><use transform="matrix(0.05,0,0,0.05,76.9,0)" xlink:href="#V"/><use transform="matrix(0.05,0,0,0.05,82.85000000000001,0)" xlink:href="#N"/><use transform="matrix(0.05,0,0,0.05,86.80000000000001,0)" xlink:href="#R"/><use transform="matrix(0.05,0,0,0.05,96.80000000000001,0)" xlink:href="#U"/></g><g id="A"><use transform="matrix(0.05,0,0,0.05,0,0)" xlink:href="#W"/><use transform="matrix(0.05,0,0,0.05,5.95,0)" xlink:href="#ae"/><use transform="matrix(0.05,0,0,0.05,18.900000000000002,0)" xlink:href="#V"/><use transform="matrix(0.05,0,0,0.05,24.85,0)" xlink:href="#N"/><use transform="matrix(0.05,0,0,0.05,28.8,0)" xlink:href="#S"/><use transform="matrix(0.05,0,0,0.05,33.8,0)" xlink:href="#T"/><use transform="matrix(0.05,0,0,0.05,43.8,0)" xlink:href="#V"/><use transform="matrix(0.05,0,0,0.05,49.75,0)" xlink:href="#P"/><use transform="matrix(0.05,0,0,0.05,54.75,0)" xlink:href="#ab"/><use transform="matrix(0.05,0,0,0.05,66.75,0)" xlink:href="#S"/><use transform="matrix(0.05,0,0,0.05,71.75,0)" xlink:href="#V"/><use transform="matrix(0.05,0,0,0.05,77.7,0)" xlink:href="#N"/><use transform="matrix(0.05,0,0,0.05,81.65,0)" xlink:href="#R"/><use transform="matrix(0.05,0,0,0.05,91.65,0)" xlink:href="#U"/></g><path d="M15-91v-56l181-69v40L49-119l147 57v40" id="aV"/><path d="M25-224v-37h50v37H25zM25 0v-190h50V0H25" id="aW"/><path d="M135-194c87-1 58 113 63 194h-50c-7-57 23-157-34-157-59 0-34 97-39 157H25l-1-190h47c2 12-1 28 3 38 12-26 28-41 61-42" id="aX"/><path d="M115-3C79 11 28 4 28-45v-112H4v-33h27l15-45h31v45h36v33H77v99c-1 23 16 31 38 25v30" id="aY"/><path d="M185-48c-13 30-37 53-82 52C43 2 14-33 14-96s30-98 90-98c62 0 83 45 84 108H66c0 31 8 55 39 56 18 0 30-7 34-22zm-45-69c5-46-57-63-70-21-2 6-4 13-4 21h74" id="aZ"/><path d="M135-150c-39-12-60 13-60 57V0H25l-1-190h47c2 13-1 29 3 40 6-28 27-53 61-41v41" id="ba"/><path d="M121-226c-27-7-43 5-38 36h38v33H83V0H34v-157H6v-33h28c-9-59 32-81 87-68v32" id="bb"/><path d="M133-34C117-15 103 5 69 4 32 3 11-16 11-54c-1-60 55-63 116-61 1-26-3-47-28-47-18 1-26 9-28 27l-52-2c7-38 36-58 82-57s74 22 75 68l1 82c-1 14 12 18 25 15v27c-30 8-71 5-69-32zm-48 3c29 0 43-24 42-57-32 0-66-3-65 30 0 17 8 27 23 27" id="bc"/><path d="M190-63c-7 42-38 67-86 67-59 0-84-38-90-98-12-110 154-137 174-36l-49 2c-2-19-15-32-35-32-30 0-35 28-38 64-6 74 65 87 74 30" id="bd"/><path d="M15-22v-40l146-57-146-57v-40l181 69v56" id="be"/><g id="B"><use transform="matrix(0.05,0,0,0.05,0,0)" xlink:href="#aV"/><use transform="matrix(0.05,0,0,0.05,10.5,0)" xlink:href="#aV"/><use transform="matrix(0.05,0,0,0.05,21,0)" xlink:href="#aW"/><use transform="matrix(0.05,0,0,0.05,26,0)" xlink:href="#aX"/><use transform="matrix(0.05,0,0,0.05,36.95,0)" xlink:href="#aY"/><use transform="matrix(0.05,0,0,0.05,42.900000000000006,0)" xlink:href="#aZ"/><use transform="matrix(0.05,0,0,0.05,52.900000000000006,0)" xlink:href="#ba"/><use transform="matrix(0.05,0,0,0.05,59.900000000000006,0)" xlink:href="#bb"/><use transform="matrix(0.05,0,0,0.05,65.85000000000001,0)" xlink:href="#bc"/><use transform="matrix(0.05,0,0,0.05,75.85000000000001,0)" xlink:href="#bd"/><use transform="matrix(0.05,0,0,0.05,85.85000000000001,0)" xlink:href="#aZ"/><use transform="matrix(0.05,0,0,0.05,95.85000000000001,0)" xlink:href="#be"/><use transform="matrix(0.05,0,0,0.05,106.35000000000001,0)" xlink:href="#be"/></g><path d="M230 0l2-204L168 0h-37L68-204 70 0H24v-248h70l56 185 57-185h69V0h-46" id="bf"/><path d="M110-194c64 0 96 36 96 99 0 64-35 99-97 99-61 0-95-36-95-99 0-62 34-99 96-99zm-1 164c35 0 45-28 45-65 0-40-10-65-43-65-34 0-45 26-45 65 0 36 10 65 43 65" id="bg"/><path d="M128 0H69L1-190h53L99-40l48-150h52" id="bh"/><path d="M24 0v-248h52v208h133V0H24" id="bi"/><path d="M137-138c1-29-70-34-71-4 15 46 118 7 119 86 1 83-164 76-172 9l43-7c4 19 20 25 44 25 33 8 57-30 24-41C81-84 22-81 20-136c-2-80 154-74 161-7" id="bj"/><g id="C"><use transform="matrix(0.05,0,0,0.05,0,0)" xlink:href="#bf"/><use transform="matrix(0.05,0,0,0.05,14.950000000000001,0)" xlink:href="#bg"/><use transform="matrix(0.05,0,0,0.05,25.900000000000002,0)" xlink:href="#bh"/><use transform="matrix(0.05,0,0,0.05,35.900000000000006,0)" xlink:href="#aW"/><use transform="matrix(0.05,0,0,0.05,40.900000000000006,0)" xlink:href="#aZ"/><use transform="matrix(0.05,0,0,0.05,50.900000000000006,0)" xlink:href="#bi"/><use transform="matrix(0.05,0,0,0.05,61.85,0)" xlink:href="#aW"/><use transform="matrix(0.05,0,0,0.05,66.85000000000001,0)" xlink:href="#bj"/><use transform="matrix(0.05,0,0,0.05,76.85000000000001,0)" xlink:href="#aY"/></g><path fill="#3a414a" d="M30 0v-248h33v221h125V0H30" id="bk"/><path fill="#3a414a" d="M143 0L79-87 56-68V0H24v-261h32v163l83-92h37l-77 82L181 0h-38" id="bl"/><path fill="#3a414a" d="M232-93c-1 65-40 97-104 97C67 4 28-28 28-90v-158h33c8 89-33 224 67 224 102 0 64-133 71-224h33v155" id="bm"/><path fill="#3a414a" d="M240 0l2-218c-23 76-54 145-80 218h-23L58-218 59 0H30v-248h44l77 211c21-75 51-140 76-211h43V0h-30" id="bn"/><path fill="#3a414a" d="M108 0H70L1-190h34L89-25l56-165h34" id="bo"/><g id="D"><use transform="matrix(0.06172839506172839,0,0,0.06172839506172839,0,0)" xlink:href="#bk"/><use transform="matrix(0.06172839506172839,0,0,0.06172839506172839,12.345679012345679,0)" xlink:href="#ah"/><use transform="matrix(0.06172839506172839,0,0,0.06172839506172839,24.691358024691358,0)" xlink:href="#ah"/><use transform="matrix(0.06172839506172839,0,0,0.06172839506172839,37.03703703703704,0)" xlink:href="#bl"/><use transform="matrix(0.06172839506172839,0,0,0.06172839506172839,48.14814814814815,0)" xlink:href="#bm"/><use transform="matrix(0.06172839506172839,0,0,0.06172839506172839,64.13580246913581,0)" xlink:href="#ai"/><use transform="matrix(0.06172839506172839,0,0,0.06172839506172839,76.4814814814815,0)" xlink:href="#bn"/><use transform="matrix(0.06172839506172839,0,0,0.06172839506172839,94.93827160493828,0)" xlink:href="#ah"/><use transform="matrix(0.06172839506172839,0,0,0.06172839506172839,107.28395061728396,0)" xlink:href="#bo"/><use transform="matrix(0.06172839506172839,0,0,0.06172839506172839,118.39506172839508,0)" xlink:href="#an"/><use transform="matrix(0.06172839506172839,0,0,0.06172839506172839,123.27160493827162,0)" xlink:href="#aj"/></g><path fill="#3a414a" d="M205 0l-28-72H64L36 0H1l101-248h38L239 0h-34zm-38-99l-47-123c-12 45-31 82-46 123h93" id="bp"/><path fill="#3a414a" d="M85-194c31 0 48 13 60 33l-1-100h32l1 261h-30c-2-10 0-23-3-31C134-8 116 4 85 4 32 4 16-35 15-94c0-66 23-100 70-100zm9 24c-40 0-46 34-46 75 0 40 6 74 45 74 42 0 51-32 51-76 0-42-9-74-50-73" id="bq"/><g id="E"><use transform="matrix(0.06172839506172839,0,0,0.06172839506172839,0,0)" xlink:href="#bp"/><use transform="matrix(0.06172839506172839,0,0,0.06172839506172839,14.814814814814813,0)" xlink:href="#bq"/><use transform="matrix(0.06172839506172839,0,0,0.06172839506172839,27.160493827160494,0)" xlink:href="#bq"/><use transform="matrix(0.06172839506172839,0,0,0.06172839506172839,39.50617283950617,0)" xlink:href="#bn"/><use transform="matrix(0.06172839506172839,0,0,0.06172839506172839,57.96296296296296,0)" xlink:href="#ah"/><use transform="matrix(0.06172839506172839,0,0,0.06172839506172839,70.30864197530865,0)" xlink:href="#bo"/><use transform="matrix(0.06172839506172839,0,0,0.06172839506172839,81.41975308641976,0)" xlink:href="#an"/><use transform="matrix(0.06172839506172839,0,0,0.06172839506172839,86.2962962962963,0)" xlink:href="#aj"/><use transform="matrix(0.06172839506172839,0,0,0.06172839506172839,98.64197530864199,0)" xlink:href="#aw"/><use transform="matrix(0.06172839506172839,0,0,0.06172839506172839,109.69135802469137,0)" xlink:href="#ah"/><use transform="matrix(0.06172839506172839,0,0,0.06172839506172839,122.03703703703705,0)" xlink:href="#bk"/><use transform="matrix(0.06172839506172839,0,0,0.06172839506172839,134.38271604938274,0)" xlink:href="#an"/><use transform="matrix(0.06172839506172839,0,0,0.06172839506172839,139.25925925925927,0)" xlink:href="#as"/><use transform="matrix(0.06172839506172839,0,0,0.06172839506172839,150.37037037037038,0)" xlink:href="#am"/></g></defs></g></svg>